<?xml version="1.0" encoding="UTF-8"?>
<!-- Generator: Adobe Illustrator 23.0.3, SVG Export Plug-In . SVG Version: 6.00 Build 0)  -->
<svg version="1.1" xmlns="http://www.w3.org/2000/svg" xmlns:xlink="http://www.w3.org/1999/xlink" x="0px" y="0px" viewBox="0 0 48 48" style="enable-background:new 0 0 48 48;" xml:space="preserve">
<style type="text/css">
	.st0{fill:#F39000;}
</style>
<g id="Layer_1">
	<g>
		<path class="st0" d="M23,47.9c0-0.2,0-0.4,0-0.6c0-6.2,0-12.4,0-18.5c0-0.4-0.1-0.6-0.4-0.8c-3.2-1.9-6.4-3.9-9.6-5.8    c-0.2-0.1-0.4-0.2-0.7-0.3c-0.5-0.1-0.9,0.1-1.1,0.6c-0.1,0.3-0.1,0.6-0.1,0.8c0,2.4,0,4.8,0,7.1c0,0.5-0.2,0.8-0.7,1    c-1.7,0.7-3.3,1.4-4.7,2.6c-1.3,1.1-2.2,2.4-2.3,4.2c-0.1,2.2,0,4.4,0,6.6c0,0.8,0.4,1.5,0.9,2c0.8,0.7,1.7,1,2.7,1    c3.7,0,7.4,0,11,0C19.8,47.9,21.3,47.9,23,47.9z M25.9,47.8c0.1,0,0.2,0.1,0.2,0.1c5.3,0,10.6,0,16,0c2,0,3.3-1.5,3.3-3.5    c0-1.8,0-3.7,0-5.5c0-0.5-0.1-1.1-0.2-1.6c-0.4-1.8-1.6-3-3.1-4c-1.2-0.7-2.5-1.3-3.8-1.9c-0.4-0.2-0.5-0.4-0.5-0.8    c0-2.4,0-4.8,0-7.1c0-0.3,0-0.7-0.1-1c-0.1-0.5-0.5-0.8-1.1-0.6c-0.2,0.1-0.5,0.2-0.7,0.3c-3.2,1.9-6.3,3.8-9.5,5.7    c-0.4,0.2-0.5,0.5-0.5,0.9c0,5.4,0,10.8,0,16.2C25.9,45.9,25.9,46.9,25.9,47.8z M14.1,9.5c-0.7,0-1.3,0-1.9,0c-1.5,0-3,0-4.4,0    c-0.8,0-1.4,0.6-1.4,1.4c0,0.8,0.6,1.4,1.4,1.4c0.2,0,0.4,0,0.6,0c5.5,0,11,0,16.5,0c5.3,0,10.6,0,16,0c0.4,0,0.9-0.1,1.3-0.3    c0.5-0.3,0.6-0.9,0.4-1.5c-0.2-0.6-0.7-1-1.4-1c-1.8,0-3.7,0-5.5,0c-0.2,0-0.5,0-0.7,0c-0.2-1.1-0.3-2.1-0.5-3.1    c-0.3-1.9-0.9-3.6-2.1-5.1C31-0.1,29.6-0.4,28,0.5c-1,0.6-2,1.2-3,1.9c-0.5,0.4-0.7,0.3-1.2,0c-0.9-0.6-1.8-1.3-2.8-1.8    c-1.8-1-3.4-0.6-4.7,0.9c-0.9,1.1-1.4,2.3-1.6,3.7C14.5,6.6,14.3,8.1,14.1,9.5z M30.1,14.1c-0.8,0-1.6,0-2.4,0    c-1.4,0-2.2,0.9-2.3,2.2c0,0.5,0,0.9,0,1.4c0.3,2.3,1.6,3.5,3.9,3.5c1.1,0,2.1,0,3.2,0c1.3,0,2.2-1,2.3-2.2c0-0.8,0-1.7,0-2.5    c0-1.4-0.9-2.4-2.4-2.4C31.6,14.1,30.8,14.1,30.1,14.1z M18.8,14.1c-0.8,0-1.5,0-2.3,0c-1.4,0-2.3,1-2.3,2.3c0,0.9,0,1.7,0,2.6    c0,1.2,1,2.1,2.1,2.2c1.2,0,2.5,0,3.7,0c1.6-0.1,2.8-1,3.2-2.5c0.2-0.7,0.3-1.5,0.3-2.2c0-1.4-0.9-2.3-2.4-2.4    C20.3,14.1,19.6,14.1,18.8,14.1z"/>
		<path class="st0" d="M23,47.9c-1.6,0-3.2,0-4.8,0c-3.7,0-7.4,0-11,0c-1,0-2-0.3-2.7-1c-0.6-0.5-0.9-1.2-0.9-2c0-2.2,0-4.4,0-6.6    c0.1-1.7,1-3.1,2.3-4.2c1.4-1.2,3-2,4.7-2.6c0.5-0.2,0.7-0.4,0.7-1c0-2.4,0-4.8,0-7.1c0-0.3,0-0.6,0.1-0.8    c0.1-0.5,0.6-0.8,1.1-0.6c0.2,0.1,0.5,0.2,0.7,0.3c3.2,1.9,6.4,3.9,9.6,5.8c0.3,0.2,0.4,0.4,0.4,0.8c0,6.2,0,12.4,0,18.5    C23,47.5,23,47.6,23,47.9z"/>
		<path class="st0" d="M25.9,47.8c0-0.9,0-1.8,0-2.7c0-5.4,0-10.8,0-16.2c0-0.4,0.1-0.7,0.5-0.9c3.2-1.9,6.3-3.8,9.5-5.7    c0.2-0.1,0.5-0.3,0.7-0.3c0.5-0.2,0.9,0.1,1.1,0.6c0.1,0.3,0.1,0.6,0.1,1c0,2.4,0,4.8,0,7.1c0,0.4,0.2,0.6,0.5,0.8    c1.3,0.6,2.6,1.2,3.8,1.9c1.5,0.9,2.7,2.2,3.1,4c0.1,0.5,0.2,1.1,0.2,1.6c0,1.8,0,3.7,0,5.5c0,2-1.3,3.5-3.3,3.5    c-5.3,0-10.6,0-16,0C26.1,47.8,26,47.8,25.9,47.8z"/>
		<path class="st0" d="M14.1,9.5c0.2-1.5,0.5-2.9,0.7-4.4c0.2-1.4,0.7-2.6,1.6-3.7c1.3-1.6,2.9-1.9,4.7-0.9c1,0.5,1.9,1.2,2.8,1.8    c0.4,0.3,0.7,0.4,1.2,0C26,1.7,27,1,28,0.5c1.6-0.9,3-0.5,4.2,0.9c1.2,1.5,1.8,3.2,2.1,5.1c0.2,1,0.3,2,0.5,3.1c0.2,0,0.5,0,0.7,0    c1.8,0,3.7,0,5.5,0c0.7,0,1.2,0.4,1.4,1c0.2,0.6,0.1,1.2-0.4,1.5c-0.3,0.2-0.8,0.3-1.3,0.3c-5.3,0-10.6,0-16,0c-5.5,0-11,0-16.5,0    c-0.2,0-0.4,0-0.6,0c-0.9,0-1.4-0.6-1.4-1.4c0-0.8,0.6-1.4,1.4-1.4c1.5,0,3,0,4.4,0C12.8,9.5,13.4,9.5,14.1,9.5z"/>
		<path class="st0" d="M30.1,14.1c0.8,0,1.5,0,2.3,0c1.4,0,2.3,0.9,2.4,2.4c0,0.8,0,1.7,0,2.5c0,1.3-1,2.2-2.3,2.2    c-1.1,0-2.1,0-3.2,0c-2.3,0-3.6-1.2-3.9-3.5c-0.1-0.5-0.1-0.9,0-1.4c0.1-1.4,1-2.2,2.3-2.2C28.5,14.1,29.3,14.1,30.1,14.1z"/>
		<path class="st0" d="M18.8,14.1c0.8,0,1.5,0,2.3,0c1.4,0,2.4,0.9,2.4,2.4c0,0.7-0.1,1.5-0.3,2.2c-0.4,1.6-1.6,2.5-3.2,2.5    c-1.2,0.1-2.5,0-3.7,0c-1.2,0-2.1-1-2.1-2.2c0-0.9,0-1.7,0-2.6c0-1.4,1-2.3,2.3-2.3C17.3,14.1,18.1,14.1,18.8,14.1z"/>
	</g>
</g>
<g id="Colour_block">
</g>
<g id="Layer_2">
</g>
</svg>