<?xml version="1.0" encoding="UTF-8"?>
<!-- Generator: Adobe Illustrator 23.0.3, SVG Export Plug-In . SVG Version: 6.00 Build 0)  -->
<svg version="1.1" xmlns="http://www.w3.org/2000/svg" xmlns:xlink="http://www.w3.org/1999/xlink" x="0px" y="0px" viewBox="0 0 48 48" style="enable-background:new 0 0 48 48;" xml:space="preserve">
<style type="text/css">
	.st0{opacity:0.6;fill:#F39000;}
	.st1{fill:none;stroke:#F39000;stroke-width:0.6768;stroke-miterlimit:10;}
</style>
<g id="Layer_1">
</g>
<g id="Colour_block">
	<path class="st0" d="M12,36.2c0-0.1,4.9-5.1,4.9-5.1s0.1-0.5-0.6-0.6c-0.8,0-1.8,0-2.5-0.5c-0.7-0.5-2.1-1.5-1.3-2.7   s0.9-1.3,1.5-1.8c0.7-0.5,1.2-0.4,1.9-0.2c0.6,0.1,1.4,1.1,1.7,1.6c0.2,0.5,0.2,1.6,0.4,2.1c0.2,0.4,0.2,1,0.8,0.5s5.3-5.2,5.3-5.2   l-5.4-5.8c0,0,0.1-0.4,0.8-0.5c0.7-0.1,1.7-0.3,2.1-0.5c0.4-0.2,1.6-1.3,1.5-2.1s-0.6-1.9-1.3-2.4c-0.7-0.4-1.3-0.8-2.3-0.4   c-1,0.4-1.4,1-1.7,1.9c-0.3,0.8,0,1.6-0.1,2c-0.1,0.4-0.5,0.9-1.1,0.1c-0.6-0.9-4.7-4.7-4.7-4.7S1.3,22.3,0.7,22.9s-0.3,2,0.5,2.8   C2.1,26.5,12,36.2,12,36.2z"/>
</g>
<g id="Layer_2">
	<path class="st1" d="M36.1,12c0,0-4.3,4.3-4.5,4.5c-1.2,1.2-0.1,1.2,1.2,1.2c1.3,0,4.5,1.9,2,4.4s-4.6-0.6-4.6-1.9   c0-1.3-0.4-2-1.2-1.2c-0.2,0.2-9.9,10-10.1,10.2c-0.8,0.8-1.2,0.1-1.2-1.2c0-1.3-2-4.4-4.6-1.9s0.7,4.4,2,4.4s2.4,0,1.2,1.2   c-0.2,0.2-4.7,4.7-4.7,4.7"/>
	<path class="st1" d="M36.2,36.2c0,0-4.3-4.3-4.5-4.5c-1.2-1.2-1.2-0.1-1.2,1.2c0,1.3-1.9,4.5-4.4,2c-2.5-2.5,0.6-4.6,1.9-4.6   c1.3,0,2-0.4,1.2-1.2C29,29,19.2,19.3,19,19.1c-0.8-0.8-0.1-1.2,1.2-1.2c1.3,0,4.4-2,1.9-4.6s-4.4,0.7-4.4,2s0,2.4-1.2,1.2   c-0.2-0.2-4.7-4.7-4.7-4.7"/>
	<path class="st1" d="M47,25.4L25.4,47c-0.8,0.8-2.1,0.8-2.9,0L1,25.4c-0.8-0.8-0.8-2.1,0-2.9L22.6,1c0.8-0.8,2.1-0.8,2.9,0L47,22.6   C47.8,23.4,47.8,24.6,47,25.4z"/>
</g>
</svg>