<?xml version="1.0" encoding="UTF-8"?>
<!-- Generator: Adobe Illustrator 23.0.3, SVG Export Plug-In . SVG Version: 6.00 Build 0)  -->
<svg version="1.1" id="Layer_1" xmlns="http://www.w3.org/2000/svg" xmlns:xlink="http://www.w3.org/1999/xlink" x="0px" y="0px" viewBox="0 0 60 60" style="enable-background:new 0 0 60 60;" xml:space="preserve">
<style type="text/css">
	.st0{fill:#F39000;}
</style>
<g>
	<g>
		<path class="st0" d="M16.3,20.5c0-2.4,1.9-4.4,4.1-4.5c2-0.1,4.1,0,6.1,0c0.4,0,0.5,0.2,0.5,0.5c0,1.2,0,2.4,0,3.5    c0,0.3-0.2,0.5-0.5,0.5c0,0-0.1,0-0.1,0c-3.3,0-6.6,0-10,0C16.5,20.6,16.4,20.5,16.3,20.5z"/>
		<path class="st0" d="M43.9,20.5c-0.2,0-0.3,0-0.4,0c-3.1,0-6.1,0-9.2,0c-0.5,0-0.6-0.1-0.6-0.6c0-1.1,0-2.2,0-3.4    c0-0.4,0.2-0.6,0.6-0.6c1.8,0,3.6,0,5.3,0C42,16.1,44,18.2,43.9,20.5z"/>
		<path class="st0" d="M58.9,34.3c0-0.8-0.4-1.1-1.2-1.1c-1.5,0-3.1,0-4.6,0c-0.3,0-0.5,0-0.8,0c-0.1-0.1-0.2-0.3-0.3-0.4    c-1.3-2.3-2.6-4.6-4-6.9c-1.4-2.5-3.6-3.7-6.4-3.7c-7.8,0-15.6,0-23.5,0c-2.8,0-5,1.3-6.4,3.7c-1.3,2.3-2.7,4.7-4,7    c-0.1,0.1-0.1,0.2-0.2,0.3c-0.2,0-0.3-0.1-0.4-0.1c-1.7,0-3.5,0-5.2,0c-0.5,0-0.9,0.4-0.9,0.9c0,0.4,0,0.7,0,1.1    c0,0.5,0.2,0.9,0.6,1.2c0.6,0.5,1.3,1,1.8,1.4c-0.1,0.4-0.2,0.7-0.2,1c0,4.2,0,8.3,0,12.5c0,0.9,0.2,1.6,1.2,1.9    c0,1.2,0,2.4,0,3.5c0,0.9,0.5,1.4,1.4,1.4c2.8,0,5.7,0,8.5,0c1,0,1.4-0.5,1.4-1.4c0-1,0-2,0-3c0-0.1,0-0.3,0-0.4    c9.5,0,19,0,28.5,0c0,1.2,0,2.3,0,3.5c0,0.9,0.5,1.4,1.4,1.4c2.8,0,5.7,0,8.5,0c0.9,0,1.4-0.5,1.4-1.4c0-1.1,0-2.3,0-3.4    c1.1-0.4,1.2-0.7,1.2-1.8c0-4.1,0-8.2,0-12.3c0-0.4-0.1-0.8-0.2-1.2c0.3-0.2,0.7-0.6,1.1-0.9C59.1,35.7,58.9,36.1,58.9,34.3z     M15,47c-1.5,0-3,0-4.5,0c0,0,0-0.1,0-0.1c-1.5,0-3,0-4.5,0c-0.6,0-0.8-0.2-0.8-0.8c0-1,0-2,0-2.9c0-0.5,0.2-0.7,0.7-0.7    c2.2-0.1,4.3-0.1,6.4,0.4c1.4,0.3,2.4,1,2.9,2.3c0.1,0.3,0.3,0.5,0.4,0.8C16,46.6,15.7,47,15,47z M37,44.5    c-1.9,0.7-3.7,1.5-5.6,2.2c-1,0.4-2,0.4-3,0c-1.9-0.7-3.8-1.5-5.7-2.2c-0.6-0.2-0.5-0.6-0.5-1.4c0-0.4,0.4-0.5,0.9-0.5    c2.3,0,4.5,0,6.8,0c2.2,0,4.5,0,6.7,0c0.6,0,0.9,0.2,1,0.6C37.7,43.9,37.7,44.3,37,44.5z M21.4,33.3c-3.7,0.1-7.5,0.4-11.1,1.3    c-0.1,0-0.3,0-0.4-0.1c0-0.1,0-0.2,0.1-0.3c1.3-2.3,2.6-4.6,3.9-6.9c1.1-1.8,2.7-2.7,4.8-2.7c3.8,0,7.6,0,11.3,0c0,0,0,0,0,0    c3.7,0,7.4,0,11.1,0c2.3,0,4.1,1,5.2,3c1.2,2.2,2.5,4.3,3.7,6.5c0.1,0.1,0.1,0.3,0.1,0.4c-0.2,0-0.3,0.1-0.5,0.1    c-3.2-0.7-6.5-1.1-9.8-1.2C33.7,33.1,27.5,33.1,21.4,33.3z M53.8,46.9c-1.5,0-3,0-4.5,0c0,0,0,0.1,0,0.1c-1.5,0-3,0-4.5,0    c-0.7,0-1-0.4-0.7-1c0.1-0.2,0.2-0.3,0.2-0.5c0.6-1.7,1.9-2.5,3.6-2.8c2-0.3,3.9-0.4,5.9-0.3c0.5,0,0.7,0.2,0.7,0.8    c0,1,0,1.9,0,2.9C54.7,46.7,54.5,46.9,53.8,46.9z"/>
	</g>
	<g>
		<g>
			<g>
				<g>
					<path class="st0" d="M22.3,8.1c0,2.4,1.2,4.6,2.9,6l0.8-0.8c-1.6-1.2-2.6-3-2.6-5.2s1-4,2.6-5.2l-0.8-0.8       C23.5,3.5,22.3,5.7,22.3,8.1z"/>
				</g>
				<g>
					<path class="st0" d="M24.3,8.1c0,1.9,1,3.7,2.4,4.7l0.8-0.8c-1.3-0.8-2.1-2.3-2.1-3.9c0-1.6,0.8-3.1,2.1-3.9l-0.8-0.8       C25.3,4.4,24.3,6.1,24.3,8.1z"/>
				</g>
				<g>
					<path class="st0" d="M26.4,8.1c0,1.4,0.8,2.6,1.9,3.2l0.8-0.8c-0.9-0.4-1.6-1.3-1.6-2.4s0.7-2,1.6-2.4l-0.8-0.8       C27.2,5.5,26.4,6.7,26.4,8.1z"/>
				</g>
				<g>
					<path class="st0" d="M38.5,8.1c0,2.4-1.2,4.6-2.9,6l-0.8-0.8c1.6-1.2,2.6-3,2.6-5.2s-1-4-2.6-5.2l0.8-0.8       C37.4,3.5,38.5,5.7,38.5,8.1z"/>
				</g>
				<g>
					<path class="st0" d="M36.6,8.1c0,1.9-1,3.7-2.4,4.7L33.3,12c1.3-0.8,2.1-2.3,2.1-3.9c0-1.6-0.8-3.1-2.1-3.9l0.8-0.8       C35.6,4.4,36.6,6.1,36.6,8.1z"/>
				</g>
				<g>
					<path class="st0" d="M34.5,8.1c0,1.4-0.8,2.6-1.9,3.2l-0.8-0.8c0.9-0.4,1.6-1.3,1.6-2.4s-0.7-2-1.6-2.4l0.8-0.8       C33.7,5.5,34.5,6.7,34.5,8.1z"/>
				</g>
				<g>
					<path class="st0" d="M31.7,8.1c0-0.7-0.5-1.2-1.2-1.2c-0.7,0-1.2,0.5-1.2,1.2c0,0.6,0.4,1.1,1,1.2V15h0.4V9.3       C31.2,9.2,31.7,8.7,31.7,8.1z"/>
				</g>
			</g>
		</g>
	</g>
</g>
</svg>