<?xml version="1.0" encoding="UTF-8"?>
<!-- Generator: Adobe Illustrator 23.0.3, SVG Export Plug-In . SVG Version: 6.00 Build 0)  -->
<svg version="1.1" xmlns="http://www.w3.org/2000/svg" xmlns:xlink="http://www.w3.org/1999/xlink" x="0px" y="0px" viewBox="0 0 48 48" style="enable-background:new 0 0 48 48;" xml:space="preserve">
<style type="text/css">
	.st0{fill:#F39000;}
</style>
<g id="Layer_1">
</g>
<g id="Siren">
	<g>
		<g>
			<path class="st0" d="M38.68,30.46H9.11c-0.62,0-1.15,0.44-1.26,1.05l-1.03,5.61c-0.14,0.79,0.46,1.51,1.26,1.51h31.39     c0.78,0,1.38-0.69,1.27-1.46l-0.79-5.61C39.86,30.93,39.32,30.46,38.68,30.46z"/>
		</g>
		<g>
			<path class="st0" d="M36.42,29.89H11.49V14.96c0-5.28,4.3-9.58,9.58-9.58h5.76c5.28,0,9.58,4.3,9.58,9.58V29.89z M12.63,28.75     h22.64V14.96c0-4.65-3.79-8.44-8.44-8.44h-5.76c-4.65,0-8.44,3.79-8.44,8.44V28.75z"/>
		</g>
		<g>
			<path class="st0" d="M30.46,16.08c-0.32,0-0.57-0.26-0.57-0.57c0-1.98-1.61-3.59-3.59-3.59c-0.32,0-0.57-0.26-0.57-0.57     c0-0.32,0.26-0.57,0.57-0.57c2.61,0,4.73,2.12,4.73,4.73C31.03,15.83,30.78,16.08,30.46,16.08z"/>
		</g>
		<g>
			<path class="st0" d="M30.46,29.89c-0.32,0-0.57-0.26-0.57-0.57V18.75c0-0.32,0.26-0.57,0.57-0.57c0.32,0,0.57,0.26,0.57,0.57     v10.57C31.03,29.64,30.78,29.89,30.46,29.89z"/>
		</g>
		<g>
			<g>
				<g>
					<path class="st0" d="M9.6,20.67c-0.09,0-0.18-0.02-0.27-0.07c-1.95-1.03-3.15-3.04-3.15-5.24c0-2.21,1.21-4.22,3.17-5.24       c0.28-0.15,0.62-0.04,0.77,0.24c0.15,0.28,0.04,0.62-0.24,0.77c-1.58,0.83-2.56,2.45-2.56,4.23c0,1.78,0.98,3.4,2.55,4.23       c0.28,0.15,0.38,0.49,0.24,0.77C10,20.56,9.8,20.67,9.6,20.67z"/>
				</g>
				<g>
					<path class="st0" d="M5.34,24.43c-0.1,0-0.21-0.03-0.3-0.09C1.88,22.38,0,18.99,0,15.28c0-3.72,1.89-7.12,5.06-9.08       c0.27-0.17,0.62-0.08,0.79,0.19c0.17,0.27,0.08,0.62-0.19,0.79c-2.83,1.75-4.52,4.78-4.52,8.11c0,3.31,1.68,6.34,4.5,8.09       c0.27,0.17,0.35,0.52,0.18,0.79C5.72,24.33,5.53,24.43,5.34,24.43z"/>
				</g>
			</g>
			<g>
				<g>
					<path class="st0" d="M38.31,20.67c-0.2,0-0.4-0.11-0.5-0.3c-0.15-0.28-0.04-0.62,0.24-0.77c1.57-0.83,2.55-2.45,2.55-4.23       c0-1.78-0.98-3.4-2.56-4.23c-0.28-0.15-0.39-0.49-0.24-0.77c0.15-0.28,0.49-0.39,0.77-0.24c1.96,1.03,3.17,3.04,3.17,5.24       c0,2.2-1.21,4.21-3.15,5.24C38.49,20.65,38.4,20.67,38.31,20.67z"/>
				</g>
				<g>
					<path class="st0" d="M42.57,24.43c-0.19,0-0.38-0.1-0.49-0.27c-0.17-0.27-0.08-0.62,0.18-0.79c2.82-1.75,4.5-4.78,4.5-8.09       c0-3.33-1.69-6.36-4.52-8.11c-0.27-0.17-0.35-0.52-0.19-0.79c0.17-0.27,0.52-0.35,0.79-0.19c3.17,1.96,5.06,5.35,5.06,9.08       c0,3.71-1.88,7.1-5.04,9.06C42.78,24.4,42.67,24.43,42.57,24.43z"/>
				</g>
			</g>
		</g>
		<g>
			<path class="st0" d="M41.46,43.77h-6.89c-0.32,0-0.57-0.26-0.57-0.57s0.26-0.57,0.57-0.57h6.89c2.2,0,3.99-1.79,3.99-3.99     c0-2.2-1.79-3.99-3.99-3.99h-1.16c-0.32,0-0.57-0.26-0.57-0.57s0.26-0.57,0.57-0.57h1.16c2.83,0,5.13,2.3,5.13,5.13     C46.6,41.47,44.29,43.77,41.46,43.77z"/>
		</g>
	</g>
</g>
</svg>