<?xml version="1.0" encoding="UTF-8"?>
<!-- Generator: Adobe Illustrator 23.0.3, SVG Export Plug-In . SVG Version: 6.00 Build 0)  -->
<svg version="1.1" id="Layer_1" xmlns="http://www.w3.org/2000/svg" xmlns:xlink="http://www.w3.org/1999/xlink" x="0px" y="0px" viewBox="0 0 60 60" style="enable-background:new 0 0 60 60;" xml:space="preserve">
<style type="text/css">
	.st0{fill:#F39000;}
</style>
<path class="st0" d="M33.4,8.7c0,1.8,0,3.5,0,5.3c1.5,0,3,0,4.6,0c0,1.3,0,2.6,0,4c0.4,0,0.7,0,1.1,0c5.9,0,11.9,0,17.8,0  c2.2,0,3.1,1,3.1,3.2c0,11.2,0,22.4,0,33.7c0,2.2-1,3.2-3.2,3.2c-17.9,0-35.8,0-53.6,0C1,58,0,57,0,54.8c0-11.2,0-22.4,0-33.7  C0,19,1,18,3.1,18c5.9,0,11.8,0,17.7,0c0.4,0,0.8,0,1.2,0c0-1.3,0-2.6,0-4c1.6,0,3.1,0,4.6,0c0-1.8,0-3.5,0-5.3c-0.2,0-0.4,0-0.7,0  c-1.7,0-3.4,0-5.1,0C19,8.7,18,7.6,18,5.8c0-0.4,0-0.8,0-1.2C18.1,3.2,19.1,2,20.6,2c6.3,0,12.6,0,18.8,0c0.3,0,0.6,0.1,0.9,0.2  c1.4,0.5,2,2.1,1.6,4.2c-0.2,1.3-1.3,2.2-2.8,2.2C37.3,8.7,35.3,8.7,33.4,8.7z M4,22.1C4,32.7,4,43.3,4,54c17.3,0,34.6,0,51.9,0  c0-10.7,0-21.3,0-31.9"/>
<g>
	<path class="st0" d="M42,34.4c0-0.1,0-0.2-0.1-0.2c-0.7-1.3-1.5-2.6-2.2-3.9c-0.7-1.2-1.7-1.8-3.1-1.8c-2.2,0-4.4,0-6.7,0   c0,0,0,0,0,0c-2.3,0-4.5,0-6.8,0c-1.3,0-2.2,0.5-2.9,1.6c-0.8,1.4-1.6,2.7-2.3,4.1c0,0.1,0,0.1,0,0.2c0.1,0,0.2,0.1,0.2,0   c2.2-0.5,4.4-0.7,6.7-0.8c3.7-0.1,7.4-0.1,11.1,0c2,0.1,3.9,0.3,5.9,0.7C41.8,34.5,41.9,34.4,42,34.4z"/>
	<path class="st0" d="M21.2,40.8c-0.3-0.8-0.9-1.2-1.8-1.4c-1.3-0.3-2.6-0.3-3.9-0.2c-0.3,0-0.4,0.1-0.4,0.4c0,0.6,0,1.2,0,1.8   c0,0.4,0.1,0.5,0.5,0.5c0.9,0,1.8,0,2.7,0c0,0,0,0,0,0.1c0.9,0,1.8,0,2.7,0c0.4,0,0.6-0.2,0.4-0.6C21.3,41.2,21.2,41,21.2,40.8z"/>
	<path class="st0" d="M34,39.2c-1.3,0-2.7,0-4,0c-1.4,0-2.7,0-4.1,0c-0.3,0-0.5,0.1-0.5,0.3c-0.1,0.5-0.1,0.7,0.3,0.8   c1.1,0.4,2.3,0.9,3.4,1.3c0.6,0.2,1.2,0.2,1.8,0c1.1-0.4,2.2-0.9,3.4-1.3c0.4-0.2,0.4-0.4,0.3-0.9C34.5,39.3,34.3,39.2,34,39.2z"/>
	<path class="st0" d="M6.7,24v27.9h46.5V24H6.7z M46.6,35.8c-0.2,0.2-0.5,0.4-0.7,0.5c0,0.3,0.1,0.5,0.1,0.7c0,2.5,0,4.9,0,7.4   c0,0.7-0.1,0.8-0.7,1.1c0,0.7,0,1.4,0,2.1c0,0.6-0.3,0.9-0.8,0.9c-1.7,0-3.4,0-5.1,0c-0.6,0-0.8-0.3-0.8-0.8c0-0.7,0-1.4,0-2.1   c-5.7,0-11.4,0-17.1,0c0,0.1,0,0.2,0,0.3c0,0.6,0,1.2,0,1.8c0,0.6-0.3,0.8-0.9,0.8c-1.7,0-3.4,0-5.1,0c-0.5,0-0.8-0.3-0.8-0.8   c0-0.7,0-1.4,0-2.1c-0.6-0.1-0.7-0.6-0.7-1.1c0-2.5,0-5,0-7.5c0-0.2,0.1-0.4,0.1-0.6c-0.3-0.3-0.7-0.6-1.1-0.9   c-0.2-0.2-0.4-0.4-0.3-0.7c0-0.2,0-0.4,0-0.6c0-0.3,0.2-0.6,0.6-0.6c1.1,0,2.1,0,3.2,0c0.1,0,0.1,0,0.2,0c0-0.1,0.1-0.1,0.1-0.2   c0.8-1.4,1.6-2.8,2.4-4.2c0.9-1.5,2.1-2.2,3.8-2.3c4.7,0,9.4,0,14.1,0c1.7,0,3,0.8,3.9,2.2c0.8,1.4,1.6,2.8,2.4,4.2   c0.1,0.1,0.1,0.2,0.2,0.3c0.2,0,0.3,0,0.5,0c0.9,0,1.9,0,2.8,0c0.5,0,0.7,0.2,0.7,0.7C47.3,35.4,47.4,35.2,46.6,35.8z"/>
	<path class="st0" d="M44.3,39.2c-1.2-0.1-2.4,0-3.5,0.2c-1,0.2-1.8,0.7-2.1,1.7c0,0.1-0.1,0.2-0.1,0.3c-0.2,0.4,0,0.6,0.4,0.6   c0.9,0,1.8,0,2.7,0c0,0,0,0,0-0.1c0.9,0,1.8,0,2.7,0c0.4,0,0.5-0.1,0.5-0.5c0-0.6,0-1.1,0-1.7C44.8,39.3,44.7,39.2,44.3,39.2z"/>
</g>
</svg>